<?xml version="1.0" encoding="UTF-8" standalone="no"?>
<svg
   height="48"
   width="48"
   version="1.1"
   id="svg4"
   sodipodi:docname="Logo.svg"
   inkscape:version="1.2 (dc2aedaf03, 2022-05-15)"
   inkscape:export-filename="Logo.png"
   inkscape:export-xdpi="96"
   inkscape:export-ydpi="96"
   xmlns:inkscape="http://www.inkscape.org/namespaces/inkscape"
   xmlns:sodipodi="http://sodipodi.sourceforge.net/DTD/sodipodi-0.dtd"
   xmlns="http://www.w3.org/2000/svg"
   xmlns:svg="http://www.w3.org/2000/svg">
  <defs
     id="defs8" />
  <sodipodi:namedview
     id="namedview6"
     pagecolor="#505050"
     bordercolor="#eeeeee"
     borderopacity="1"
     inkscape:showpageshadow="0"
     inkscape:pageopacity="0"
     inkscape:pagecheckerboard="0"
     inkscape:deskcolor="#505050"
     showgrid="false"
     inkscape:zoom="17.4375"
     inkscape:cx="22.709677"
     inkscape:cy="24.028674"
     inkscape:window-width="1920"
     inkscape:window-height="1017"
     inkscape:window-x="-8"
     inkscape:window-y="32"
     inkscape:window-maximized="1"
     inkscape:current-layer="svg4" />
  <path
     d="M1.5 36q-.65 0-1.075-.425Q0 35.15 0 34.5v-1.15q0-1.95 2.075-3.15T7.5 29q.6 0 1.175.025.575.025 1.125.125-.4.85-.6 1.75-.2.9-.2 1.9V36Zm12 0q-.65 0-1.075-.425Q12 35.15 12 34.5v-1.7q0-3.25 3.325-5.275Q18.65 25.5 24 25.5q5.4 0 8.7 2.025Q36 29.55 36 32.8v1.7q0 .65-.425 1.075Q35.15 36 34.5 36ZM39 36v-3.2q0-1-.2-1.9-.2-.9-.6-1.75.55-.1 1.125-.125Q39.9 29 40.5 29q3.35 0 5.425 1.2Q48 31.4 48 33.35v1.15q0 .65-.425 1.075Q47.15 36 46.5 36ZM7.5 27.5q-1.45 0-2.475-1.025Q4 25.45 4 24q0-1.45 1.025-2.475Q6.05 20.5 7.5 20.5q1.45 0 2.475 1.025Q11 22.55 11 24q0 1.45-1.025 2.475Q8.95 27.5 7.5 27.5Zm33 0q-1.45 0-2.475-1.025Q37 25.45 37 24q0-1.45 1.025-2.475Q39.05 20.5 40.5 20.5q1.45 0 2.475 1.025Q44 22.55 44 24q0 1.45-1.025 2.475Q41.95 27.5 40.5 27.5ZM24 24q-2.5 0-4.25-1.75T18 18q0-2.5 1.75-4.25T24 12q2.5 0 4.25 1.75T30 18q0 2.5-1.75 4.25T24 24Z"
     id="path2"
     style="fill:#0077ff;fill-opacity:1" />
</svg>
